<?xml version="1.0" encoding="UTF-8"?>
<svg xmlns="http://www.w3.org/2000/svg" xmlns:xlink="http://www.w3.org/1999/xlink" width="64pt" height="64pt" viewBox="0 0 64 64" version="1.1">
<g id="surface113730">
<path style=" stroke:none;fill-rule:nonzero;fill:rgb(100%,100%,100%);fill-opacity:1;" d="M 32 8 C 18.746094 8 8 18.746094 8 32 C 8 45.253906 18.746094 56 32 56 C 45.253906 56 56 45.253906 56 32 C 56 18.746094 45.253906 8 32 8 Z M 32 8 "/>
<path style=" stroke:none;fill-rule:nonzero;fill:rgb(54.901961%,81.176471%,72.54902%);fill-opacity:1;" d="M 32 12.5 C 21.230469 12.5 12.5 21.230469 12.5 32 C 12.5 42.769531 21.230469 51.5 32 51.5 C 42.769531 51.5 51.5 42.769531 51.5 32 C 51.5 21.230469 42.769531 12.5 32 12.5 Z M 32 12.5 "/>
<path style="fill:none;stroke-width:8.0625;stroke-linecap:butt;stroke-linejoin:miter;stroke:rgb(26.666667%,29.411765%,32.941176%);stroke-opacity:1;stroke-miterlimit:10;" d="M 86 21.5 C 50.380127 21.5 21.5 50.380127 21.5 86 C 21.5 121.619873 50.380127 150.5 86 150.5 C 121.619873 150.5 150.5 121.619873 150.5 86 C 150.5 50.380127 121.619873 21.5 86 21.5 Z M 86 21.5 " transform="matrix(0.372093,0,0,0.372093,0,0)"/>
<path style="fill:none;stroke-width:8.0625;stroke-linecap:round;stroke-linejoin:miter;stroke:rgb(100%,100%,100%);stroke-opacity:1;stroke-miterlimit:10;" d="M 56.4375 92.71875 L 74.641113 108.84375 L 115.5625 61.8125 " transform="matrix(0.372093,0,0,0.372093,0,0)"/>
</g>
</svg>
